<?xml version="1.0" standalone="no"?>
<!DOCTYPE svg PUBLIC "-//W3C//DTD SVG 20010904//EN"
 "http://www.w3.org/TR/2001/REC-SVG-20010904/DTD/svg10.dtd">
<svg version="1.0" xmlns="http://www.w3.org/2000/svg"
 width="267.000000pt" height="63.000000pt" viewBox="0 0 267.000000 63.000000"
 preserveAspectRatio="xMidYMid meet">

<g transform="translate(0.000000,63.000000) scale(0.100000,-0.100000)"
fill="#000000" stroke="none">
<path d="M662 598 c-6 -6 -26 -13 -43 -15 -38 -4 -43 -8 -34 -22 4 -7 14 -6
29 4 22 15 24 14 29 -5 4 -17 1 -19 -18 -14 -28 7 -47 -11 -77 -76 -13 -27
-29 -49 -35 -50 -7 0 -13 -12 -13 -26 0 -14 -4 -23 -8 -20 -5 3 -18 -2 -30
-10 -18 -12 -20 -19 -12 -40 14 -36 13 -36 -20 -19 -28 14 -30 14 -30 -2 0
-23 36 -83 50 -83 5 0 10 11 10 24 0 14 5 28 10 31 6 4 20 27 32 51 18 39 81
114 95 114 3 0 23 16 46 35 44 38 71 47 41 14 -19 -21 -19 -21 11 -17 22 2 31
9 33 26 2 12 8 22 14 22 6 0 19 6 27 13 14 12 18 11 32 -3 15 -16 13 -17 -19
-18 -42 -2 -49 -7 -32 -27 10 -12 10 -15 -4 -15 -17 0 -19 -11 -10 -47 7 -26
24 -31 24 -8 0 20 16 19 24 -1 10 -25 8 -27 -26 -20 -78 15 -77 15 -95 -14 -9
-16 -27 -34 -40 -41 -13 -7 -23 -17 -23 -23 0 -6 -11 3 -24 19 -18 21 -28 27
-35 19 -15 -14 -52 -115 -46 -125 3 -4 1 -10 -5 -14 -16 -10 -12 -28 6 -21 8
3 12 2 9 -3 -7 -13 33 -25 75 -22 33 2 70 24 70 43 0 13 93 98 108 98 7 0 25
6 40 14 15 7 35 10 46 7 14 -5 2 -12 -43 -26 -57 -17 -83 -38 -87 -70 -1 -5
-2 -14 -3 -19 0 -5 -7 -3 -15 3 -11 9 -15 7 -20 -13 -3 -13 -3 -32 0 -41 7
-18 58 -47 68 -38 3 4 6 2 6 -3 0 -6 15 -8 33 -6 26 3 41 -5 87 -44 63 -54 65
-52 58 53 -4 56 -2 62 13 58 20 -7 83 17 94 34 4 7 0 23 -9 36 -14 21 -14 24
2 30 15 6 15 8 -5 18 -17 9 -19 16 -12 30 11 19 4 37 -15 37 -12 0 -39 43 -41
65 -3 31 -20 56 -48 74 -64 38 -108 61 -120 61 -7 0 -18 9 -25 20 -14 23 -80
28 -100 8z m175 -135 c-4 -3 -1 -13 6 -21 10 -13 9 -15 -6 -9 -10 4 -26 7 -35
7 -12 1 -10 5 8 15 27 16 37 19 27 8z m-124 -128 c9 -18 9 -19 -6 -6 -10 7
-17 23 -16 35 0 14 2 16 6 6 3 -8 10 -24 16 -35z m-159 -63 c15 -18 15 -20 -2
-35 -18 -16 -18 -15 -18 18 1 19 1 35 2 35 0 0 8 -8 18 -18z m224 -16 c-2 -1
-10 -7 -19 -14 -14 -11 -16 -9 -11 13 3 21 7 23 18 14 8 -7 13 -12 12 -13z
m-213 -52 c13 -5 14 -8 3 -15 -19 -13 -28 -11 -28 6 0 17 2 18 25 9z"/>
<path d="M555 530 c3 -5 8 -10 11 -10 2 0 4 5 4 10 0 6 -5 10 -11 10 -5 0 -7
-4 -4 -10z"/>
<path d="M456 468 c-9 -12 -16 -27 -16 -33 0 -15 48 -15 54 1 3 7 0 11 -7 8
-8 -2 -13 4 -14 17 -2 16 1 18 11 10 14 -12 46 -5 46 10 0 19 -59 9 -74 -13z"/>
<path d="M1247 454 c-4 -4 -7 -27 -7 -51 0 -51 15 -61 57 -41 31 15 43 57 21
76 -18 14 -62 25 -71 16z m57 -36 c7 -12 6 -21 -3 -32 -21 -25 -31 -19 -31 20
0 37 14 42 34 12z"/>
<path d="M1350 405 c0 -30 5 -55 10 -55 6 0 10 25 10 55 0 30 -4 55 -10 55 -5
0 -10 -25 -10 -55z"/>
<path d="M1400 440 c-23 -23 -25 -40 -7 -62 19 -24 43 -28 66 -12 29 21 27 44
-4 44 -26 0 -34 -15 -12 -23 6 -3 2 -6 -10 -6 -18 -1 -23 4 -23 25 0 25 2 26
35 20 38 -8 48 7 16 24 -28 14 -38 13 -61 -10z"/>
<path d="M1495 448 c-9 -24 -2 -93 10 -93 14 0 19 85 6 98 -7 7 -12 5 -16 -5z"/>
<path d="M1530 451 c0 -5 7 -11 15 -15 10 -3 15 -19 15 -46 0 -22 5 -40 10
-40 6 0 10 20 10 45 0 34 4 45 16 45 8 0 12 5 9 10 -8 12 -75 13 -75 1z"/>
<path d="M1646 451 c-13 -21 -34 -89 -29 -95 3 -2 14 0 24 7 15 9 23 9 39 0
27 -18 30 -5 11 46 -16 44 -34 61 -45 42z m24 -51 c0 -5 -4 -10 -10 -10 -5 0
-10 5 -10 10 0 6 5 10 10 10 6 0 10 -4 10 -10z"/>
<path d="M1720 405 c0 -52 1 -55 25 -55 27 0 34 15 10 24 -10 3 -15 19 -15 46
0 22 -4 40 -10 40 -5 0 -10 -25 -10 -55z"/>
<path d="M1780 440 c0 -29 27 -90 39 -90 6 0 14 15 19 33 l8 32 12 -33 c6 -19
17 -32 23 -30 10 3 38 77 39 101 0 13 -21 7 -25 -8 -15 -48 -18 -50 -24 -20
-8 40 -32 38 -46 -5 l-12 -35 -7 38 c-7 39 -26 51 -26 17z"/>
<path d="M1930 405 c0 -54 0 -55 30 -55 17 0 30 5 30 10 0 6 -6 10 -14 10 -26
0 -28 20 -4 29 l23 9 -25 11 -25 10 23 7 c32 9 27 24 -8 24 -30 0 -30 -1 -30
-55z"/>
<path d="M2010 404 l0 -56 32 6 c40 8 53 20 42 38 -5 7 -7 21 -5 32 3 22 -15
36 -46 36 -21 0 -23 -5 -23 -56z m45 26 c3 -5 -1 -10 -9 -10 -9 0 -16 5 -16
10 0 6 4 10 9 10 6 0 13 -4 16 -10z m-3 -45 c0 -5 -5 -11 -11 -13 -6 -2 -11 4
-11 13 0 9 5 15 11 13 6 -2 11 -8 11 -13z"/>
<path d="M1391 274 c0 -11 3 -14 6 -6 3 7 2 16 -1 19 -3 4 -6 -2 -5 -13z"/>
<path d="M1522 270 c0 -14 2 -19 5 -12 2 6 2 18 0 25 -3 6 -5 1 -5 -13z"/>
<path d="M1642 270 c0 -14 2 -19 5 -12 2 6 2 18 0 25 -3 6 -5 1 -5 -13z"/>
<path d="M1692 270 c0 -14 2 -19 5 -12 2 6 2 18 0 25 -3 6 -5 1 -5 -13z"/>
</g>
</svg>
